<?xml version="1.0" standalone="no"?>
<!DOCTYPE svg PUBLIC "-//W3C//DTD SVG 20010904//EN"
 "http://www.w3.org/TR/2001/REC-SVG-20010904/DTD/svg10.dtd">
<svg version="1.0" xmlns="http://www.w3.org/2000/svg"
 width="1024.000000pt" height="1024.000000pt" viewBox="0 0 1024.000000 1024.000000"
 preserveAspectRatio="xMidYMid meet">
<metadata>
Created by potrace 1.14, written by Peter Selinger 2001-2017
</metadata>
<g transform="translate(0.000000,1024.000000) scale(0.100000,-0.100000)"
fill="#000000" stroke="none">
<path d="M0 5120 l0 -5120 5120 0 5120 0 0 5120 0 5120 -5120 0 -5120 0 0
-5120z m3168 1769 c338 -37 664 -161 987 -377 261 -174 464 -349 770 -665
l193 -199 88 94 c49 51 118 124 154 161 169 179 495 460 680 586 664 454 1375
534 2005 226 525 -257 898 -769 980 -1348 30 -207 15 -489 -36 -689 -50 -199
-155 -426 -277 -598 -79 -113 -275 -312 -387 -395 -420 -313 -952 -424 -1473
-309 -353 78 -690 253 -1044 540 -115 94 -371 329 -457 421 -36 37 -103 107
-149 155 l-84 87 -246 -248 c-136 -137 -296 -290 -356 -341 -431 -366 -816
-563 -1246 -637 -119 -21 -439 -23 -555 -5 -579 95 -1063 440 -1321 944 -218
427 -261 875 -128 1336 130 448 465 852 886 1068 226 115 392 164 673 197 68
8 252 6 343 -4z"/>
<path d="M2850 6179 c-427 -52 -785 -357 -904 -771 -142 -495 95 -1029 557
-1253 301 -145 621 -147 964 -6 176 73 413 232 633 425 129 114 530 524 530
542 0 23 -515 533 -640 635 -281 227 -541 363 -790 413 -100 20 -257 27 -350
15z"/>
<path d="M7136 6179 c-427 -49 -828 -309 -1383 -897 l-154 -163 33 -42 c69
-86 468 -478 593 -581 372 -307 694 -448 1025 -449 309 -1 572 111 785 334
181 191 279 421 292 684 14 304 -87 570 -300 792 -173 181 -404 294 -657 323
-95 11 -135 11 -234 -1z"/>
</g>
</svg>
